<svg width="570" height="250" viewBox="0 0 570 250" fill="none" xmlns="http://www.w3.org/2000/svg">
<path opacity="0.1" d="M207.556 123.986L202.185 99.5694L207.556 123.986ZM381.686 85.3188L377.341 109.938L381.686 85.3188ZM1.88793 -19.4694C14.8776 12.0312 40.0988 57.9809 74.4287 94.0841C108.24 129.642 156.236 160.873 212.927 148.402L202.185 99.5694C171.249 106.375 140.138 90.6275 110.663 59.6299C81.7065 29.1779 59.4631 -11.0038 48.1121 -38.5306L1.88793 -19.4694ZM212.927 148.402C270.186 135.805 297.755 121.913 317.579 114.002C326.938 110.267 333.706 108.21 341.605 107.406C349.721 106.58 360.423 106.952 377.341 109.938L386.032 60.6994C366.438 57.2411 350.81 56.2118 336.545 57.6628C322.064 59.1358 310.4 63.0325 299.047 67.5631C277.445 76.1837 254.459 88.0693 202.185 99.5694L212.927 148.402ZM377.341 109.938C401.777 114.252 441.304 132.778 483.368 156.666C524.378 179.956 564.404 206.338 588.572 223.417L617.428 182.583C592.165 164.731 550.743 137.428 508.059 113.188C466.428 89.546 420.013 66.6973 386.032 60.6994L377.341 109.938Z" fill="black"/>
<path opacity="0.1" d="M67.2284 228.319L61.86 203.902L67.2284 228.319ZM172.369 204.986L168.026 229.605L172.369 204.986ZM-66.1101 145.535C-57.9413 165.333 -42.1216 194.205 -20.3274 217.112C0.949711 239.475 33.2717 261.382 72.5967 252.736L61.86 203.902C48.2755 206.889 32.8318 200.446 15.8964 182.647C-0.521889 165.391 -13.3616 142.287 -19.8899 126.465L-66.1101 145.535ZM72.5967 252.736C108.156 244.917 125.709 236.137 137.327 231.504C142.584 229.407 145.701 228.53 149.169 228.177C152.853 227.802 158.34 227.897 168.026 229.605L176.712 180.366C164.353 178.185 153.941 177.434 144.112 178.433C134.066 179.455 126.055 182.17 118.805 185.061C105.409 190.404 92.4378 197.179 61.86 203.902L72.5967 252.736ZM168.026 229.605C180.893 231.875 203.396 242.2 228.88 256.664C253.31 270.53 277.202 286.268 291.578 296.421L320.422 255.579C304.952 244.653 279.664 227.995 253.56 213.179C228.508 198.961 199.119 184.318 176.712 180.366L168.026 229.605Z" fill="black"/>
</svg>
